<svg xmlns:dc="http://purl.org/dc/elements/1.1/" xmlns:cc="http://creativecommons.org/ns#" xmlns:rdf="http://www.w3.org/1999/02/22-rdf-syntax-ns#" xmlns:svg="http://www.w3.org/2000/svg" xmlns="http://www.w3.org/2000/svg" xmlns:sodipodi="http://sodipodi.sourceforge.net/DTD/sodipodi-0.dtd" xmlns:inkscape="http://www.inkscape.org/namespaces/inkscape" viewBox="0 0 48 60.00000125" version="1.1" x="0px" y="0px"><g transform="translate(0,-1004.3622)"><path style="color:#000000;font-style:normal;font-variant:normal;font-weight:normal;font-stretch:normal;font-size:medium;line-height:normal;font-family:sans-serif;text-indent:0;text-align:start;text-decoration:none;text-decoration-line:none;text-decoration-style:solid;text-decoration-color:#000000;letter-spacing:normal;word-spacing:normal;text-transform:none;direction:ltr;block-progression:tb;writing-mode:lr-tb;baseline-shift:baseline;text-anchor:start;white-space:normal;clip-rule:nonzero;display:inline;overflow:visible;visibility:visible;opacity:1;isolation:auto;mix-blend-mode:normal;color-interpolation:sRGB;color-interpolation-filters:linearRGB;solid-color:#000000;solid-opacity:1;fill:#000000;fill-opacity:1;fill-rule:evenodd;stroke:none;stroke-width:2;stroke-linecap:round;stroke-linejoin:round;stroke-miterlimit:4;stroke-dasharray:none;stroke-dashoffset:0;stroke-opacity:1;color-rendering:auto;image-rendering:auto;shape-rendering:auto;text-rendering:auto;enable-background:accumulate" d="m 23.945421,1008.3624 c -5.847199,0 -11.713794,1.6968 -15.810118,5.2285 -1.9035508,1.6412 -3.3067267,4.2766 -3.8748951,7.0157 -0.5681685,2.739 -0.2868721,5.6909 1.6483929,7.666 3.7587821,3.8359 10.9305522,5.2133 18.0561522,5.082 7.1256,-0.1313 14.213976,-1.7759 17.958498,-5.0273 2.120905,-1.8417 2.400453,-4.8517 1.798779,-7.627 -0.601674,-2.7753 -2.06057,-5.466 -3.966689,-7.1094 -4.096326,-3.5317 -9.962919,-5.2285 -15.81012,-5.2285 z m 0,2 c 5.455107,0 10.8915,1.6283 14.505468,4.7442 1.443873,1.2448 2.804622,3.6573 3.316316,6.0175 0.511695,2.3603 0.197594,4.5195 -1.154266,5.6934 -3.008026,2.6119 -9.864166,4.4115 -16.685095,4.5371 -6.820929,0.1257 -13.597583,-1.4272 -16.5913475,-4.4824 -1.2882625,-1.3148 -1.6000476,-3.5314 -1.1171573,-5.8594 0.4828904,-2.3279 1.7761275,-4.6592 3.2225691,-5.9062 3.6139667,-3.1159 9.0484077,-4.7442 14.5035127,-4.7442 z"/><path style="color:#000000;font-style:normal;font-variant:normal;font-weight:normal;font-stretch:normal;font-size:medium;line-height:normal;font-family:sans-serif;text-indent:0;text-align:start;text-decoration:none;text-decoration-line:none;text-decoration-style:solid;text-decoration-color:#000000;letter-spacing:normal;word-spacing:normal;text-transform:none;direction:ltr;block-progression:tb;writing-mode:lr-tb;baseline-shift:baseline;text-anchor:start;white-space:normal;clip-rule:nonzero;display:inline;overflow:visible;visibility:visible;opacity:1;isolation:auto;mix-blend-mode:normal;color-interpolation:sRGB;color-interpolation-filters:linearRGB;solid-color:#000000;solid-opacity:1;fill:#000000;fill-opacity:1;fill-rule:evenodd;stroke:none;stroke-width:2;stroke-linecap:round;stroke-linejoin:round;stroke-miterlimit:4;stroke-dasharray:none;stroke-dashoffset:0;stroke-opacity:1;color-rendering:auto;image-rendering:auto;shape-rendering:auto;text-rendering:auto;enable-background:accumulate" d="m 41.001601,1027.3624 a 1.0000729,1.0001 0 0 0 -1.001926,0.9981 c 0,0 -0.03858,2.1828 -0.31835,4.8359 -0.279774,2.6531 -0.849725,5.7972 -1.695268,7.4356 -0.834286,1.6164 -2.201715,3.1345 -3.744038,3.7714 -6.272695,2.5909 -14.211129,2.5909 -20.483822,0 -1.542321,-0.6369 -2.909749,-2.155 -3.744039,-3.7714 -0.8455413,-1.6384 -1.4154933,-4.7825 -1.6952662,-7.4356 -0.2797728,-2.6531 -0.3183507,-4.8359 -0.3183507,-4.8359 a 1.0001269,1.000154 0 1 0 -1.9999459,0.035 c 0,0 0.038303,2.2615 0.3281161,5.0098 0.2898134,2.7483 0.7822393,5.9609 1.9081515,8.1426 0.9991279,1.9358 2.5982532,3.8113 4.7576842,4.7032 6.81498,2.8148 15.19614,2.8148 22.011122,0 2.159433,-0.8919 3.758558,-2.7674 4.757684,-4.7032 1.125914,-2.1817 1.618339,-5.3943 1.908152,-8.1426 0.289813,-2.7482 0.328116,-5.0097 0.328116,-5.0097 a 1.0000729,1.0001 0 0 0 -0.99802,-1.0332 z"/><path style="color:#000000;font-style:normal;font-variant:normal;font-weight:normal;font-stretch:normal;font-size:medium;line-height:normal;font-family:sans-serif;text-indent:0;text-align:start;text-decoration:none;text-decoration-line:none;text-decoration-style:solid;text-decoration-color:#000000;letter-spacing:normal;word-spacing:normal;text-transform:none;direction:ltr;block-progression:tb;writing-mode:lr-tb;baseline-shift:baseline;text-anchor:start;white-space:normal;clip-rule:nonzero;display:inline;overflow:visible;visibility:visible;opacity:1;isolation:auto;mix-blend-mode:normal;color-interpolation:sRGB;color-interpolation-filters:linearRGB;solid-color:#000000;solid-opacity:1;fill:#000000;fill-opacity:1;fill-rule:nonzero;stroke:none;stroke-width:2;stroke-linecap:round;stroke-linejoin:round;stroke-miterlimit:4;stroke-dasharray:none;stroke-dashoffset:0;stroke-opacity:1;color-rendering:auto;image-rendering:auto;shape-rendering:auto;text-rendering:auto;enable-background:accumulate" d="m 12.951579,1015.3644 a 1.0000729,1.0001 0 0 0 -0.447254,0.1308 c -1.58984,0.8763 -2.7590329,2.3632 -3.2499117,4.1211 -0.4908787,1.7579 -0.2631502,3.6404 0.6347486,5.2266 a 1.0000729,1.0001 0 1 0 1.7401871,-0.9844 c -0.63491,-1.1216 -0.797184,-2.4589 -0.449206,-3.7051 0.347976,-1.2461 1.175477,-2.2933 2.290953,-2.9082 a 1.0000729,1.0001 0 0 0 -0.519517,-1.8808 z"/><path style="opacity:1;fill:#000000;fill-opacity:1;stroke:none;stroke-width:2;stroke-linecap:round;stroke-linejoin:round;stroke-miterlimit:4;stroke-dasharray:none;stroke-dashoffset:0;stroke-opacity:1" d="m 33.999837,1016.3633 a 0.99997294,1 0 0 1 -0.999973,1 0.99997294,1 0 0 1 -0.999973,-1 0.99997294,1 0 0 1 0.999973,-1 0.99997294,1 0 0 1 0.999973,1 z"/><path style="opacity:1;fill:#000000;fill-opacity:1;stroke:none;stroke-width:2;stroke-linecap:round;stroke-linejoin:round;stroke-miterlimit:4;stroke-dasharray:none;stroke-dashoffset:0;stroke-opacity:1" d="m 30.999918,1020.3633 a 0.99997294,1 0 0 1 -0.999973,1 0.99997294,1 0 0 1 -0.999972,-1 0.99997294,1 0 0 1 0.999972,-1 0.99997294,1 0 0 1 0.999973,1 z"/><path style="opacity:1;fill:#000000;fill-opacity:1;stroke:none;stroke-width:2;stroke-linecap:round;stroke-linejoin:round;stroke-miterlimit:4;stroke-dasharray:none;stroke-dashoffset:0;stroke-opacity:1" d="m 36.999756,1022.3633 a 0.99997294,1 0 0 1 -0.999973,1 0.99997294,1 0 0 1 -0.999973,-1 0.99997294,1 0 0 1 0.999973,-1 0.99997294,1 0 0 1 0.999973,1 z"/></g><text x="0" y="63.000001" fill="#000000" font-size="5px" font-weight="bold" font-family="'Helvetica Neue', Helvetica, Arial-Unicode, Arial, Sans-serif">Created by anbileru adaleru</text><text x="0" y="68.000001" fill="#000000" font-size="5px" font-weight="bold" font-family="'Helvetica Neue', Helvetica, Arial-Unicode, Arial, Sans-serif">from the Noun Project</text></svg>